# xmcd
# Track frame offsets:
# 150
# 13837
# 35920
# 49677
# 66012
# 88330
# 104480
# 123317
# 136330
# 152090
# 167712
# 183350
# 196560
#
# Disc length: 2900 seconds
# Revision: 0
# Processed by: cddbd v1.5.2PL0 Copyright (c) Steve Scherf et al.
# Submitted via: VisiTrax 2.10.0.248 - For more info visit www.synapsa.com
#
DISCID=b00b520d
DTITLE=Lee Ann WOMACK - I Hope You Dance
DYEAR=2000
DGENRE=Rock
TTITLE0=The Healing Kind
TTITLE1=I Hope You Dance
TTITLE2=After I Fall
TTITLE3=Stronger Than I Am
TTITLE4=I Know Why The River Runs
TTITLE5=Why Thay Call It Falling
TTITLE6=Ashes By Now
TTITLE7=Thinkin' With My Heart Again
TTITLE8=I Feel Like I'm Forgetting Something
TTITLE9=Lonely Too
TTITLE10=Does My Ring Burn Your Finger
TTITLE11=Lord I Hope This Day Is Good
TTITLE12=I Hope You Dance (The Rawling Mix)
EXTD=
EXTT0=
EXTT1=
EXTT2=
EXTT3=
EXTT4=
EXTT5=
EXTT6=
EXTT7=
EXTT8=
EXTT9=
EXTT10=
EXTT11=
EXTT12=
PLAYORDER=
